<?xml version="1.0" encoding="iso-8859-1"?>
<svg version="1.1" id="Capa_1" xmlns="http://www.w3.org/2000/svg" xmlns:xlink="http://www.w3.org/1999/xlink" x="0px" y="0px"
	 viewBox="0 0 314.949 314.949" style="enable-background:new 0 0 314.949 314.949;" xml:space="preserve">
<g>
	<g>
		<path style="fill:#010002;" d="M267.743,67.306l-41.451,41.457h-87.335l37.927-37.927l-9.04-9.056l-29.115,29.115V4.131h-12.793
			V90.9l-29.11-29.11l-9.056,9.04l37.932,37.932H0l38.443,56.604h132.751v10.628H45.656l35.941,52.623H189.53l-11.112,36.121H90.653
			v0.18c-11.863,0.914-21.272,10.753-21.272,22.855c0,12.711,10.334,23.045,23.045,23.045c12.695,0,23.034-10.334,23.034-23.045
			c0-4.569-1.376-8.817-3.682-12.406h38.465c-2.306,3.59-3.688,7.838-3.688,12.406c0,12.711,10.34,23.045,23.051,23.045
			c12.695,0,23.034-10.334,23.034-23.045c0-5.7-2.154-10.862-5.597-14.892l48.81-158.641l36.3-36.295h42.795V67.306
			C314.949,67.306,267.743,67.306,267.743,67.306z M92.426,300.179c-6.842,0-12.407-5.559-12.407-12.406
			c0-6.831,5.564-12.406,12.407-12.406c6.837,0,12.401,5.575,12.401,12.406C104.827,294.621,99.263,300.179,92.426,300.179z
			 M169.601,300.179c-6.848,0-12.406-5.559-12.406-12.406c0-6.831,5.559-12.406,12.406-12.406c6.837,0,12.406,5.575,12.406,12.406
			C182.013,294.621,176.438,300.179,169.601,300.179z"/>
	</g>
</g>
<g>
</g>
<g>
</g>
<g>
</g>
<g>
</g>
<g>
</g>
<g>
</g>
<g>
</g>
<g>
</g>
<g>
</g>
<g>
</g>
<g>
</g>
<g>
</g>
<g>
</g>
<g>
</g>
<g>
</g>
</svg>
