<?xml version="1.0" standalone="no"?>
<!DOCTYPE svg PUBLIC "-//W3C//DTD SVG 20010904//EN"
 "http://www.w3.org/TR/2001/REC-SVG-20010904/DTD/svg10.dtd">
<svg version="1.0" xmlns="http://www.w3.org/2000/svg"
 width="1280.000000pt" height="993.000000pt" viewBox="0 0 1280.000000 993.000000"
 preserveAspectRatio="xMidYMid meet">
<metadata>
Created by potrace 1.15, written by Peter Selinger 2001-2017
</metadata>
<g transform="translate(0.000000,993.000000) scale(0.100000,-0.100000)"
fill="#000000" stroke="none">
<path d="M6105 9919 c-49 -5 -214 -29 -365 -54 -474 -79 -449 -77 -890 -81
-431 -4 -542 -12 -710 -49 -436 -97 -924 -400 -1269 -787 -225 -253 -396 -500
-727 -1048 -256 -425 -338 -556 -465 -736 -110 -157 -139 -213 -170 -330 -21
-76 -22 -100 -23 -649 -2 -634 -3 -653 -72 -865 -71 -216 -154 -355 -473 -795
-471 -647 -805 -1194 -894 -1463 -76 -231 -57 -416 69 -662 70 -137 162 -260
293 -391 392 -391 918 -645 1450 -700 162 -17 519 -6 691 20 515 79 1089 255
1618 497 287 131 462 230 625 354 76 58 201 152 277 210 201 153 316 204 383
168 42 -21 371 -496 503 -724 211 -365 338 -682 579 -1445 52 -162 103 -315
115 -340 l20 -44 -5 43 c-13 102 -204 708 -363 1152 -150 420 -244 652 -372
920 -104 219 -113 248 -112 360 1 168 53 359 194 710 39 96 77 195 84 219 l14
45 -26 -25 c-15 -13 -129 -134 -254 -269 -447 -480 -745 -726 -1185 -975 -537
-305 -1322 -566 -2000 -664 -590 -86 -1050 -39 -1409 143 -136 69 -222 131
-321 231 -73 72 -183 220 -173 230 2 3 29 -5 59 -17 77 -29 177 -29 248 3 124
53 292 203 460 408 292 359 336 531 174 682 -57 54 -151 101 -260 131 -113 32
-382 32 -575 0 -75 -12 -170 -22 -212 -22 -68 0 -77 2 -91 23 -28 44 -4 97
185 417 70 118 205 350 300 515 342 592 477 803 727 1137 206 276 253 346 303
450 70 148 73 271 9 424 -17 40 -86 165 -153 278 -174 291 -198 387 -133 529
36 80 111 155 332 332 309 247 389 340 744 858 287 420 559 704 861 899 313
203 711 348 1115 407 113 17 190 21 400 21 143 0 312 -5 375 -11 63 -6 284
-12 490 -14 494 -3 631 -21 911 -115 460 -155 1003 -449 1821 -986 480 -315
998 -699 1388 -1028 191 -162 458 -426 570 -566 356 -446 534 -935 534 -1470
0 -361 -61 -616 -229 -955 -167 -337 -409 -663 -760 -1024 -542 -556 -988
-816 -1575 -917 -87 -15 -207 -27 -301 -31 -537 -21 -758 143 -879 652 -105
436 -117 1060 -45 2245 71 1162 79 1370 72 1675 -12 440 -54 703 -152 950
-127 319 -374 618 -608 736 -193 98 -321 6 -320 -231 1 -98 12 -151 54 -261
57 -147 148 -269 464 -619 173 -192 238 -272 294 -364 169 -279 192 -680 90
-1591 -11 -99 -49 -418 -84 -710 -113 -932 -130 -1133 -122 -1504 7 -360 44
-548 152 -766 202 -410 609 -608 1160 -566 587 45 1238 319 1805 760 512 397
1006 975 1290 1506 29 55 55 102 57 104 2 3 16 -7 31 -21 15 -14 122 -101 237
-193 335 -269 378 -307 601 -527 117 -114 219 -208 228 -208 26 0 19 34 -27
123 -55 106 -127 208 -263 372 -172 207 -543 569 -683 667 l-23 16 35 93 c94
251 137 476 144 759 5 189 3 230 -16 339 -49 287 -165 533 -367 777 -222 269
-758 748 -1365 1219 -834 649 -1693 1208 -2409 1569 -495 250 -812 365 -1165
422 -111 18 -418 26 -540 13z"/>
<path d="M3781 6905 c-71 -16 -124 -48 -140 -83 -29 -62 0 -177 77 -311 112
-194 272 -384 392 -464 107 -72 241 -95 346 -59 89 31 158 81 294 214 72 71
150 138 173 150 24 12 71 24 107 27 l65 6 -2 34 c-1 20 -16 54 -39 88 -113
163 -347 265 -838 364 -232 46 -343 55 -435 34z"/>
</g>
</svg>
