<?xml version="1.0" standalone="no"?>
<!DOCTYPE svg PUBLIC "-//W3C//DTD SVG 20010904//EN"
 "http://www.w3.org/TR/2001/REC-SVG-20010904/DTD/svg10.dtd">
<svg version="1.0" xmlns="http://www.w3.org/2000/svg"
 width="1280.000000pt" height="992.000000pt" viewBox="0 0 1280.000000 992.000000"
 preserveAspectRatio="xMidYMid meet">
<metadata>
Created by potrace 1.15, written by Peter Selinger 2001-2017
</metadata>
<g transform="translate(0.000000,992.000000) scale(0.100000,-0.100000)"
fill="#000000" stroke="none">
<path d="M6440 9914 c-474 -31 -689 -58 -970 -120 -412 -91 -839 -271 -1145
-482 -149 -102 -267 -204 -484 -416 -228 -223 -288 -274 -423 -358 -169 -105
-322 -164 -620 -239 -444 -111 -641 -204 -875 -414 -105 -94 -353 -356 -454
-480 -112 -137 -321 -415 -464 -620 -167 -238 -192 -270 -350 -445 -189 -209
-217 -244 -322 -395 -118 -170 -252 -435 -269 -534 -3 -20 -18 -70 -32 -111
-25 -70 -26 -87 -26 -255 0 -169 1 -184 26 -255 15 -41 30 -93 34 -115 9 -51
24 -81 95 -185 73 -108 120 -157 299 -317 159 -143 241 -227 395 -408 173
-204 417 -541 475 -655 12 -25 45 -82 72 -127 71 -118 214 -419 318 -670 134
-321 188 -411 273 -452 98 -48 203 -16 305 93 114 123 189 281 202 426 3 47
14 99 23 115 64 124 79 424 57 1095 -13 389 -27 646 -46 860 -22 241 -16 310
50 570 76 299 110 448 166 720 68 330 136 514 260 705 95 145 279 303 471 404
154 81 304 128 503 157 61 9 133 23 160 33 73 24 87 49 98 175 10 119 43 244
92 351 44 95 73 137 148 213 123 124 251 189 428 218 103 17 473 19 587 3 98
-13 426 -96 600 -150 72 -23 138 -39 146 -36 41 15 28 573 -17 769 -13 56 -35
154 -50 216 -14 62 -46 165 -71 229 -33 81 -45 124 -40 141 14 57 87 132 129
132 8 0 42 -22 74 -49 64 -54 102 -116 102 -169 0 -18 7 -49 15 -68 22 -54 32
-160 60 -654 14 -250 30 -489 35 -530 16 -115 39 -137 113 -106 73 30 134 115
334 464 75 130 148 252 163 270 37 45 125 110 180 134 72 31 207 59 282 59
210 0 532 -122 964 -363 l151 -85 579 -6 c598 -6 753 -14 888 -48 102 -25 169
-64 249 -145 77 -78 112 -143 132 -244 23 -111 29 -120 127 -211 199 -182 548
-637 693 -903 74 -137 93 -199 106 -351 13 -165 10 -181 -72 -353 -73 -154
-73 -161 6 -300 215 -376 544 -661 770 -665 126 -3 244 99 369 316 43 76 84
158 92 184 8 25 21 141 29 257 18 254 32 378 51 469 8 38 19 134 25 215 6 81
19 188 30 237 11 50 27 119 35 155 20 93 29 336 15 448 -12 100 -81 332 -110
372 -9 14 -49 46 -87 73 -101 69 -135 107 -194 215 -124 227 -247 389 -455
598 -165 166 -407 363 -670 545 -123 86 -132 89 -237 89 -158 0 -309 17 -373
41 -137 50 -536 240 -758 361 -295 160 -367 195 -436 208 -128 24 -173 10
-244 -79 -153 -189 -311 -195 -663 -26 -320 154 -491 190 -1129 240 -177 14
-871 27 -995 19z"/>
<path d="M8982 7965 c3 -3 40 -29 81 -58 179 -123 492 -438 547 -551 16 -34
46 -121 66 -195 61 -224 93 -290 216 -432 66 -78 111 -107 227 -149 270 -99
442 -243 498 -417 34 -107 63 -261 63 -336 0 -81 -53 -334 -83 -400 -13 -29
-53 -83 -87 -120 l-63 -69 -8 -286 c-10 -340 -25 -560 -45 -655 -36 -172 -158
-377 -224 -377 -26 0 -60 43 -60 76 0 16 12 74 27 129 l28 100 0 385 c-1 353
-2 393 -22 480 -29 132 -68 220 -200 452 l-116 200 -18 212 c-11 116 -28 310
-39 430 -22 238 -35 288 -78 294 -71 10 -110 -126 -132 -463 -14 -205 -7 -494
15 -597 18 -85 36 -120 100 -188 108 -115 181 -255 197 -377 13 -104 5 -489
-12 -525 -17 -36 -60 -54 -92 -38 -35 19 -61 53 -150 200 -157 261 -311 448
-382 466 -57 14 -126 -18 -126 -58 0 -30 23 -67 99 -158 139 -165 247 -365
325 -600 60 -181 84 -309 96 -503 6 -89 15 -179 21 -200 11 -41 35 -57 116
-77 82 -20 93 -51 158 -430 26 -146 50 -268 54 -272 12 -13 48 20 55 49 3 15
12 139 21 274 8 135 19 269 26 298 33 154 209 190 328 67 27 -28 34 -45 43
-107 15 -103 3 -442 -22 -613 -76 -533 -249 -1243 -359 -1476 -21 -44 -31 -80
-31 -112 0 -27 2 -48 5 -48 59 0 231 242 321 451 168 388 251 815 284 1449 13
250 26 375 44 449 30 116 61 354 101 772 14 146 32 313 40 370 14 100 22 255
45 819 10 243 12 258 36 308 32 65 80 99 157 112 31 5 67 16 81 25 79 52 73
283 -12 452 -46 90 -109 168 -288 354 -253 262 -422 471 -589 729 -185 285
-235 357 -295 423 l-62 67 -466 0 c-256 0 -463 -2 -460 -5z"/>
<path d="M8010 7924 c-40 -35 -70 -93 -77 -155 l-6 -50 59 -58 c101 -98 201
-103 252 -12 20 36 20 37 2 88 -26 74 -75 157 -111 187 -39 33 -79 33 -119 0z"/>
<path d="M8719 7530 c-170 -27 -442 -162 -543 -270 -57 -61 -76 -103 -76 -168
0 -59 34 -131 72 -152 24 -13 33 -12 98 8 85 28 158 66 223 115 27 20 58 37
69 37 29 0 86 -64 94 -105 10 -56 -2 -82 -63 -126 -31 -23 -86 -70 -124 -104
-64 -59 -88 -74 -172 -109 -20 -8 -40 -22 -43 -30 -11 -28 109 -221 173 -278
48 -43 579 -78 685 -45 63 20 164 77 231 132 67 54 97 111 132 249 33 129 33
201 0 266 -46 91 -226 351 -283 409 -133 134 -306 197 -473 171z"/>
<path d="M3780 6821 c-64 -21 -120 -49 -210 -104 -237 -148 -383 -293 -459
-458 -64 -135 -117 -405 -151 -760 -26 -277 -37 -321 -123 -486 l-72 -138 0
-980 c0 -1015 -1 -1034 -46 -1433 -11 -100 -17 -188 -13 -195 4 -6 25 -35 46
-63 29 -38 42 -70 54 -123 18 -91 57 -208 95 -288 48 -101 209 -233 285 -233
45 0 97 31 164 100 115 116 132 175 151 515 l12 210 46 43 c74 68 95 77 186
74 155 -3 256 -38 337 -117 57 -54 100 -116 203 -295 152 -264 287 -449 447
-615 215 -224 514 -446 650 -483 41 -11 58 -1 58 35 0 35 -49 83 -234 231
-183 145 -369 320 -472 443 -142 170 -263 381 -319 559 -47 149 -57 170 -101
219 -50 56 -140 106 -280 157 -151 54 -266 118 -333 184 -118 116 -251 350
-307 537 -30 102 -32 157 -19 423 6 102 7 246 4 320 -6 134 -6 136 -63 285
-117 306 -122 333 -81 442 35 92 79 170 208 362 60 90 115 179 123 197 21 51
17 120 -13 219 -23 74 -28 109 -27 195 0 92 4 117 32 200 35 101 159 346 250
495 51 84 79 122 175 248 42 55 45 72 18 87 -31 16 -160 11 -221 -9z"/>
<path d="M4593 6625 c-82 -18 -155 -67 -269 -180 -213 -212 -258 -318 -235
-557 17 -177 50 -248 147 -311 57 -38 176 -74 279 -85 215 -24 443 27 710 158
251 124 305 192 305 390 0 133 -24 242 -57 255 -27 10 -51 -24 -118 -160 -35
-72 -75 -143 -89 -158 -74 -80 -156 30 -156 211 0 66 2 74 31 107 17 19 69 65
115 102 46 36 84 69 84 72 0 10 -64 57 -107 80 -142 72 -475 112 -640 76z"/>
<path d="M7940 4924 c-25 -2 -225 -13 -445 -25 l-400 -21 -85 -76 c-163 -146
-365 -356 -398 -413 -81 -142 -118 -294 -134 -550 l-11 -186 115 -219 c123
-234 184 -336 277 -467 172 -241 342 -386 488 -417 53 -12 89 -6 265 40 107
28 138 21 138 -33 0 -66 -100 -129 -325 -202 -71 -24 -184 -63 -250 -88 -238
-90 -514 -131 -880 -131 -260 -1 -260 -1 -345 28 -238 80 -463 234 -490 337
-25 92 -262 279 -355 279 -12 0 -28 -7 -35 -15 -16 -19 -4 -50 39 -104 40 -51
57 -88 71 -156 19 -88 75 -202 175 -355 48 -74 129 -200 179 -280 78 -126 111
-166 241 -300 83 -85 183 -194 223 -241 84 -101 121 -132 257 -221 113 -72
183 -144 227 -232 41 -82 78 -232 78 -320 0 -84 19 -122 78 -160 56 -35 83
-46 392 -156 151 -54 350 -125 443 -159 146 -53 182 -62 284 -72 65 -6 192 -9
287 -6 147 4 184 8 261 31 236 71 352 119 464 196 109 73 239 189 314 276 104
124 264 352 282 403 18 54 20 229 2 281 -32 93 -164 27 -408 -206 -189 -180
-267 -246 -367 -312 -179 -116 -351 -162 -610 -162 -529 0 -925 212 -1222 654
-101 152 -238 447 -255 554 -6 40 -5 45 32 81 27 27 51 41 78 46 22 4 150 33
285 65 572 138 1171 223 1645 236 l210 6 95 -95 c129 -131 135 -143 135 -292
0 -66 -3 -173 -8 -237 -7 -112 -6 -119 14 -139 19 -19 29 -21 86 -16 35 4 109
19 165 33 l100 27 -6 61 c-23 231 -26 310 -16 412 16 177 28 202 227 499 103
153 147 275 172 480 14 112 19 301 8 338 -14 52 -100 56 -111 5 -3 -13 -17
-75 -31 -138 -41 -192 -146 -367 -282 -474 -53 -42 -42 -41 -223 -16 -103 14
-233 7 -361 -21 -76 -17 -142 -22 -339 -26 -279 -5 -299 -1 -333 69 -16 32
-17 41 -5 65 17 36 58 41 127 14 28 -12 74 -21 101 -21 59 0 81 22 105 108 26
93 43 133 95 217 69 114 197 381 211 440 6 28 37 131 68 230 32 105 56 199 56
225 0 64 -32 280 -57 380 -60 247 -260 469 -541 600 -85 40 -162 52 -267 44z"/>
<path d="M5294 3888 c-23 -24 -83 -99 -134 -168 -51 -69 -121 -154 -155 -190
-34 -36 -69 -79 -78 -96 -21 -41 -11 -59 95 -175 73 -79 110 -130 193 -261 27
-42 50 -56 73 -42 26 17 26 86 0 194 -18 74 -23 121 -22 215 1 109 4 128 33
210 70 193 82 237 79 294 -4 74 -26 79 -84 19z"/>
</g>
</svg>
